<svg width="16" height="16" viewBox="0 0 16 16" fill="none" xmlns="http://www.w3.org/2000/svg">
<circle cx="8" cy="8" r="3.39411" transform="rotate(45 8 8)" stroke="#E0E0E0" stroke-width="1.13137"/>
<path d="M13.2 13.2V13.7657L13.7657 13.7657L13.7657 13.2H13.2ZM13.7657 10.8C13.7657 10.4876 13.5124 10.2343 13.2 10.2343C12.8876 10.2343 12.6343 10.4876 12.6343 10.8H13.7657ZM10.8 12.6343C10.4876 12.6343 10.2343 12.8876 10.2343 13.2C10.2343 13.5124 10.4876 13.7657 10.8 13.7657V12.6343ZM10 10.8L12.8 13.6L13.6 12.8L10.8 10L10 10.8ZM13.7657 13.2L13.7657 10.8H12.6343V13.2H13.7657ZM13.2 12.6343H10.8V13.7657H13.2V12.6343Z" fill="#E0E0E0"/>
<path d="M2.8 2.8H2.23432L2.23432 2.23431L2.8 2.23431V2.8ZM5.2 2.23431C5.51242 2.23431 5.76569 2.48758 5.76569 2.8C5.76569 3.11242 5.51242 3.36568 5.2 3.36568V2.23431ZM3.36569 5.2C3.36569 5.51242 3.11242 5.76569 2.8 5.76569C2.48758 5.76569 2.23432 5.51242 2.23432 5.2H3.36569ZM5.2 6L2.4 3.2L3.2 2.4L6 5.2L5.2 6ZM2.8 2.23431L5.2 2.23431V3.36568L2.8 3.36568V2.23431ZM3.36569 2.8V5.2H2.23432V2.8H3.36569Z" fill="#E0E0E0"/>
</svg>
