<svg width="16" height="16" viewBox="0 0 16 16" fill="none" xmlns="http://www.w3.org/2000/svg">
<circle cx="2.60139" cy="8" r="1.08333" fill="#E0E0E0"/>
<circle cx="8" cy="8" r="2.49167" fill="#E0E0E0"/>
<circle cx="13.3986" cy="8" r="1.08333" fill="#E0E0E0"/>
<path d="M7.89592 1.5L7.93384 1.11496L7.89592 1.11122L7.858 1.11496L7.89592 1.5ZM8.95266 1.60408L9.06497 1.23383L9.0285 1.22277L8.99058 1.21904L8.95266 1.60408ZM9.96879 1.91232L10.1512 1.5711L10.1176 1.55314L10.0811 1.54207L9.96879 1.91232ZM10.9053 2.41287L11.1507 2.11379L11.1213 2.08962L11.0876 2.07165L10.9053 2.41287ZM11.7261 3.0865L12.0252 2.84106L12.001 2.8116L11.9715 2.78742L11.7261 3.0865ZM12.3997 3.90733L12.7409 3.72494L12.723 3.69134L12.6988 3.66188L12.3997 3.90733ZM12.9003 4.8438L13.2705 4.73149L13.2595 4.69502L13.2415 4.66141L12.9003 4.8438ZM13.2085 5.85993L13.0849 6.22657L13.4584 6.35246L13.5774 5.97669L13.2085 5.85993ZM2.89157 4.8438L2.55035 4.66141L2.53239 4.69502L2.52133 4.73149L2.89157 4.8438ZM3.39213 3.90733L3.09304 3.66188L3.06887 3.69134L3.05091 3.72494L3.39213 3.90733ZM4.06576 3.0865L3.82031 2.78742L3.79085 2.8116L3.76668 2.84106L4.06576 3.0865ZM4.88658 2.41287L4.70419 2.07165L4.67059 2.08962L4.64113 2.11379L4.88658 2.41287ZM5.82305 1.91232L5.71074 1.54207L5.67427 1.55314L5.64066 1.5711L5.82305 1.91232ZM6.83918 1.60408L6.80126 1.21904L6.76333 1.22277L6.72687 1.23383L6.83918 1.60408ZM10.7278 4.6155C10.5253 4.54725 10.3059 4.65608 10.2376 4.85856C10.1694 5.06105 10.2782 5.28053 10.4807 5.34878L10.7278 4.6155ZM14.4553 3.20326C14.5197 2.99955 14.4069 2.78212 14.2032 2.71764C13.9994 2.65315 13.782 2.76603 13.7175 2.96975L14.4553 3.20326ZM7.858 1.88504L8.91473 1.98912L8.99058 1.21904L7.93384 1.11496L7.858 1.88504ZM8.84035 1.97432L9.85648 2.28256L10.0811 1.54207L9.06497 1.23383L8.84035 1.97432ZM9.7864 2.25354L10.7229 2.75409L11.0876 2.07165L10.1512 1.5711L9.7864 2.25354ZM10.6598 2.71195L11.4806 3.38559L11.9715 2.78742L11.1507 2.11379L10.6598 2.71195ZM11.427 3.33195L12.1006 4.15278L12.6988 3.66188L12.0252 2.84106L11.427 3.33195ZM12.0585 4.08971L12.559 5.02618L13.2415 4.66141L12.7409 3.72494L12.0585 4.08971ZM12.53 4.95611L12.8383 5.97224L13.5788 5.74762L13.2705 4.73149L12.53 4.95611ZM2.95358 5.97224L3.26182 4.95611L2.52133 4.73149L2.21309 5.74762L2.95358 5.97224ZM3.23279 5.02618L3.73334 4.08971L3.05091 3.72494L2.55035 4.66141L3.23279 5.02618ZM3.69121 4.15278L4.36484 3.33195L3.76668 2.84106L3.09304 3.66188L3.69121 4.15278ZM4.31121 3.38559L5.13203 2.71195L4.64113 2.11379L3.82031 2.78742L4.31121 3.38559ZM5.06897 2.75409L6.00544 2.25354L5.64066 1.5711L4.70419 2.07165L5.06897 2.75409ZM5.93536 2.28256L6.95149 1.97432L6.72687 1.23383L5.71074 1.54207L5.93536 2.28256ZM6.8771 1.98912L7.93384 1.88504L7.858 1.11496L6.80126 1.21904L6.8771 1.98912ZM13.3321 5.49329L10.7278 4.6155L10.4807 5.34878L13.0849 6.22657L13.3321 5.49329ZM13.5774 5.97669L14.4553 3.20326L13.7175 2.96975L12.8396 5.74317L13.5774 5.97669Z" fill="#E0E0E0"/>
<path d="M8.10408 14.5L8.06615 14.885L8.10408 14.8888L8.142 14.885L8.10408 14.5ZM7.04734 14.3959L6.93503 14.7662L6.97149 14.7772L7.00941 14.781L7.04734 14.3959ZM6.03121 14.0877L5.84882 14.4289L5.88243 14.4469L5.9189 14.4579L6.03121 14.0877ZM5.09474 13.5871L4.84929 13.8862L4.87875 13.9104L4.91235 13.9283L5.09474 13.5871ZM4.27391 12.9135L3.97483 13.1589L3.99901 13.1884L4.02846 13.2126L4.27391 12.9135ZM3.60028 12.0927L3.25906 12.2751L3.27703 12.3087L3.3012 12.3381L3.60028 12.0927ZM3.09973 11.1562L2.72948 11.2685L2.74055 11.305L2.75851 11.3386L3.09973 11.1562ZM2.79149 10.1401L2.91507 9.77343L2.54157 9.64754L2.42262 10.0233L2.79149 10.1401ZM13.1084 11.1562L13.4496 11.3386L13.4676 11.305L13.4787 11.2685L13.1084 11.1562ZM12.6079 12.0927L12.907 12.3381L12.9311 12.3087L12.9491 12.2751L12.6079 12.0927ZM11.9342 12.9135L12.1797 13.2126L12.2091 13.1884L12.2333 13.1589L11.9342 12.9135ZM11.1134 13.5871L11.2958 13.9283L11.3294 13.9104L11.3589 13.8862L11.1134 13.5871ZM10.1769 14.0877L10.2893 14.4579L10.3257 14.4469L10.3593 14.4289L10.1769 14.0877ZM9.16082 14.3959L9.19874 14.781L9.23666 14.7772L9.27313 14.7662L9.16082 14.3959ZM5.27217 11.3845C5.47465 11.4527 5.69413 11.3439 5.76238 11.1414C5.83063 10.9389 5.72181 10.7195 5.51932 10.6512L5.27217 11.3845ZM1.54473 12.7967C1.48025 13.0005 1.59312 13.2179 1.79684 13.2824C2.00056 13.3468 2.21798 13.234 2.28247 13.0303L1.54473 12.7967ZM8.142 14.115L7.08526 14.0109L7.00941 14.781L8.06615 14.885L8.142 14.115ZM7.15965 14.0257L6.14352 13.7174L5.9189 14.4579L6.93503 14.7662L7.15965 14.0257ZM6.21359 13.7465L5.27712 13.2459L4.91235 13.9283L5.84882 14.4289L6.21359 13.7465ZM5.34019 13.288L4.51936 12.6144L4.02846 13.2126L4.84929 13.8862L5.34019 13.288ZM4.573 12.668L3.89936 11.8472L3.3012 12.3381L3.97483 13.1589L4.573 12.668ZM3.9415 11.9103L3.44095 10.9738L2.75851 11.3386L3.25906 12.2751L3.9415 11.9103ZM3.46997 11.0439L3.16173 10.0278L2.42124 10.2524L2.72948 11.2685L3.46997 11.0439ZM13.0464 10.0278L12.7382 11.0439L13.4787 11.2685L13.7869 10.2524L13.0464 10.0278ZM12.7672 10.9738L12.2667 11.9103L12.9491 12.2751L13.4496 11.3386L12.7672 10.9738ZM12.3088 11.8472L11.6352 12.668L12.2333 13.1589L12.907 12.3381L12.3088 11.8472ZM11.6888 12.6144L10.868 13.288L11.3589 13.8862L12.1797 13.2126L11.6888 12.6144ZM10.931 13.2459L9.99456 13.7465L10.3593 14.4289L11.2958 13.9283L10.931 13.2459ZM10.0646 13.7174L9.0485 14.0257L9.27313 14.7662L10.2893 14.4579L10.0646 13.7174ZM9.12289 14.0109L8.06615 14.115L8.142 14.885L9.19874 14.781L9.12289 14.0109ZM2.66791 10.5067L5.27217 11.3845L5.51932 10.6512L2.91507 9.77343L2.66791 10.5067ZM2.42262 10.0233L1.54473 12.7967L2.28247 13.0303L3.16036 10.2568L2.42262 10.0233Z" fill="#E0E0E0"/>
</svg>
