<svg width="16" height="16" viewBox="0 0 16 16" fill="none" xmlns="http://www.w3.org/2000/svg">
<g clip-path="url(#clip0_1_3)">
<path d="M10.4874 14.0052L11.6112 13.4046L12.5962 12.5962L13.4046 11.6112L14.0052 10.4874L14.3751 9.26809L14.5 8L14.3751 6.73191L14.0052 5.51256L13.4046 4.38879L12.5962 3.40381L11.6112 2.59545L10.4874 1.99478L9.26809 1.6249L8 1.5L6.73191 1.6249L5.51256 1.99478L4.38879 2.59545L3.40381 3.40381L2.59545 4.38879L1.99478 5.51256L1.6249 6.73191L1.5 8L1.6249 9.26809L1.99478 10.4874L2.59545 11.6112L3.40381 12.5962L4.38879 13.4046L5.51256 14.0052L6.73191 14.3751M10.4874 14.0052V10.4874M10.4874 14.0052H14.0052" stroke="#E0E0E0" stroke-width="1.5" stroke-linecap="round"/>
</g>
<defs>
<clipPath id="clip0_1_3">
<rect width="16" height="16" fill="white"/>
</clipPath>
</defs>
</svg>
