<svg width="16" height="16" viewBox="0 0 16 16" fill="none" xmlns="http://www.w3.org/2000/svg">
<circle cx="7.91963" cy="7.91963" r="3.51115" transform="rotate(45 7.91963 7.91963)" stroke="#E0E0E0" stroke-width="1.17038"/>
<path d="M13.2989 13.2989V13.8841H13.8841V13.2989H13.2989ZM13.8841 10.8162C13.8841 10.493 13.6221 10.231 13.2989 10.231C12.9757 10.231 12.7137 10.493 12.7137 10.8162H13.8841ZM10.8162 12.7137C10.493 12.7137 10.231 12.9757 10.231 13.2989C10.231 13.6221 10.493 13.8841 10.8162 13.8841V12.7137ZM9.9886 10.8162L12.8851 13.7127L13.7127 12.8851L10.8162 9.98859L9.9886 10.8162ZM13.8841 13.2989V10.8162H12.7137V13.2989H13.8841ZM13.2989 12.7137H10.8162V13.8841H13.2989V12.7137Z" fill="#E0E0E0"/>
</svg>
